<?xml version="1.0" encoding="utf-8"?>
<!-- Generator: Adobe Illustrator 24.3.0, SVG Export Plug-In . SVG Version: 6.00 Build 0)  -->
<svg version="1.1" id="Layer_1" xmlns="http://www.w3.org/2000/svg" xmlns:xlink="http://www.w3.org/1999/xlink" x="0px" y="0px"
	 viewBox="0 0 800 800" style="enable-background:new 0 0 800 800;" xml:space="preserve">
<style type="text/css">
	.st0{fill:#666666;}
</style>
<g>
	<g>
		<path class="st0" d="M580.6,180.8c-22.1,0-40,17.9-40,40c0,22.1,17.9,40,40,40c22.1,0,40-17.9,40-40
			C620.5,198.7,602.6,180.8,580.6,180.8z"/>
		<path class="st0" d="M402.8,232c-92.6,0-168,75.3-168,168c0,92.6,75.3,168,168,168c92.6,0,168-75.3,168-168
			C570.8,307.4,495.4,232,402.8,232z M402.8,507.6c-59.3,0-107.6-48.3-107.6-107.6s48.3-107.6,107.6-107.6
			c59.3,0,107.6,48.3,107.6,107.6S462.1,507.6,402.8,507.6z"/>
		<path class="st0" d="M536.1,741H263.9C150.9,741,59,649.1,59,536.1V263.9C59,150.9,150.9,59,263.9,59h272.3
			c113,0,204.9,91.9,204.9,204.9v272.3C741,649.1,649.1,741,536.1,741z M263.9,123.2c-77.6,0-140.7,63.1-140.7,140.7v272.3
			c0,77.6,63.1,140.7,140.7,140.7h272.3c77.6,0,140.7-63.1,140.7-140.7V263.9c0-77.6-63.1-140.7-140.7-140.7H263.9z"/>
	</g>
</g>
</svg>
