<?xml version="1.0" encoding="utf-8"?>
<!-- Generator: Adobe Illustrator 24.3.0, SVG Export Plug-In . SVG Version: 6.00 Build 0)  -->
<svg version="1.1" id="Layer_1" xmlns="http://www.w3.org/2000/svg" xmlns:xlink="http://www.w3.org/1999/xlink" x="0px" y="0px"
	 viewBox="0 0 800 800" style="enable-background:new 0 0 800 800;" xml:space="preserve">
<style type="text/css">
	.st0{fill:#666666;}
</style>
<path class="st0" d="M642.5,132.1H157.5c-54.3,0-98.5,44.2-98.5,98.5v338.8c0,54.3,44.2,98.5,98.5,98.5h485.1
	c54.3,0,98.5-44.2,98.5-98.5V230.6C741,176.3,696.8,132.1,642.5,132.1z M642.5,179.2c4,0,7.9,0.5,11.7,1.4L449.6,412.8
	C437,427,419,435.2,400,435.2c-19,0-37-8.2-49.6-22.4L145.8,180.6c3.8-0.9,7.7-1.4,11.7-1.4H642.5z M693.9,569.4
	c0,28.3-23.1,51.4-51.4,51.4H157.5c-28.3,0-51.4-23.1-51.4-51.4V230.6c0-6.9,1.4-13.5,3.9-19.5l205.2,232.8
	c21.5,24.4,52.4,38.3,84.9,38.3c32.5,0,63.4-14,84.9-38.3l205.2-232.8c2.5,6,3.9,12.6,3.9,19.5V569.4z"/>
</svg>
