<?xml version="1.0" encoding="utf-8"?>
<!-- Generator: Adobe Illustrator 24.3.0, SVG Export Plug-In . SVG Version: 6.00 Build 0)  -->
<svg version="1.1" id="Layer_1" xmlns="http://www.w3.org/2000/svg" xmlns:xlink="http://www.w3.org/1999/xlink" x="0px" y="0px"
	 viewBox="0 0 549 549" style="enable-background:new 0 0 549 549;" xml:space="preserve">
<style type="text/css">
	.st0{fill:#64B000;stroke:#64B000;stroke-width:0.53;stroke-miterlimit:10;}
	.st1{fill:#64B000;stroke:#64B000;stroke-width:0.57;stroke-miterlimit:10;}
	.st2{fill:#D9E800;stroke:#D9E800;stroke-width:0.44;stroke-miterlimit:10;}
	.st3{fill:#FFFFFF;stroke:#454545;stroke-width:1.73;stroke-linecap:round;stroke-linejoin:round;}
	.st4{fill:#D9D9D9;stroke:#454545;stroke-width:1.73;stroke-linecap:round;stroke-linejoin:round;}
	.st5{fill:none;stroke:#454545;stroke-width:1.73;stroke-linecap:round;stroke-linejoin:round;}
</style>
<g>
	<path class="st0" d="M146.7,365.2h-15v-99.6h21.5l14,71.6l13.4-71.6h20.7v99.6h-15v-62.6l-13,62.6h-12.1l-14.5-62.4L146.7,365.2z"
		/>
	<path class="st0" d="M225.9,365.2v-99.6h42.7v15.1H241v27.2h20.3V323H241v27.2h27.7v15.1L225.9,365.2z"/>
	<path class="st0" d="M307,265.6l19.9,67v-67h15v99.6h-16.1l-20.7-63.8v63.8h-15v-99.6H307z"/>
	<path class="st0" d="M390.3,366.3c-13,0.1-23.7-10.4-23.8-23.4c0-0.1,0-0.2,0-0.3v-77h14.7v76.8c0,2.3,0.9,4.5,2.5,6.1
		c1.6,1.6,3.8,2.5,6.1,2.5c4.7,0,8.6-3.7,8.6-8.5c0,0,0-0.1,0-0.1v-76.8h15.6v77c0.1,6.3-2.4,12.5-7,16.9
		C402.7,364,396.6,366.4,390.3,366.3z"/>
	<path class="st1" d="M228.3,188.1v-16.7l-4.4,2.8v-2.8c1.3-0.7,2.5-1.4,3.6-2.3c1.1-0.8,2.1-1.8,3-2.8h0.9v21.9H228.3z"/>
	<path class="st1" d="M250.1,176.5c-0.1-2.7,0.5-5.3,1.9-7.7c1.1-1.9,3.2-3.1,5.4-3c2-0.1,4,0.8,5.1,2.5c1.1,1.6,1.7,4.5,1.7,8.6
		c0.1,2.9-0.5,5.8-1.8,8.4c-1.1,1.9-3.1,3.1-5.3,3c-2.1,0.1-4-0.8-5.3-2.5C250.7,184.3,250.1,181.2,250.1,176.5z M253.1,176.8
		c0,6,1.3,9.1,3.9,9.1c1.4,0.1,2.7-0.7,3.3-2c0.7-1.3,1-3.7,1-7.1c0.1-1.7-0.1-3.4-0.4-5.1c-0.2-0.9-0.6-1.8-1.3-2.5
		c-0.6-0.6-1.4-0.9-2.3-0.8C254.5,168.4,253.1,171.2,253.1,176.8L253.1,176.8z"/>
	<path class="st1" d="M278.3,176.5c-0.1-2.7,0.5-5.3,1.9-7.7c1.1-1.9,3.2-3.1,5.4-3c2-0.1,4,0.8,5.1,2.5c1.1,1.6,1.7,4.5,1.7,8.6
		c0.1,2.9-0.5,5.8-1.8,8.4c-1.1,1.9-3.1,3.1-5.3,3c-2.1,0.1-4-0.8-5.3-2.5C278.9,184.3,278.3,181.2,278.3,176.5z M281.3,176.8
		c0,6,1.3,9.1,3.9,9.1c1.4,0.1,2.7-0.7,3.3-2c0.7-1.3,1-3.7,1-7.1c0.1-1.7-0.1-3.4-0.4-5.1c-0.2-0.9-0.6-1.8-1.3-2.5
		c-0.6-0.6-1.4-0.9-2.3-0.8C282.7,168.4,281.3,171.2,281.3,176.8L281.3,176.8z"/>
	<path class="st1" d="M306.4,170.8c-0.1-1.3,0.4-2.6,1.2-3.6c0.8-0.9,1.9-1.4,3.1-1.4c1.1,0,2.2,0.5,2.9,1.3
		c0.8,1.1,1.2,2.5,1.1,3.9c0.1,1.3-0.3,2.6-1.2,3.7c-0.7,0.9-1.8,1.4-3,1.4C307.8,176.1,306.4,174.3,306.4,170.8z M308.8,188.4h-1.9
		l13.1-22.5h1.9L308.8,188.4z M308.3,170.9c-0.1,0.9,0.2,1.9,0.6,2.7c0.3,0.6,0.9,1,1.5,1c1.6,0,2.4-1.2,2.4-3.6
		c0-2.4-0.7-3.6-2.2-3.6c-0.7,0-1.4,0.4-1.7,1C308.5,169.2,308.3,170.1,308.3,170.9z M314.5,183.1c-0.1-1.3,0.4-2.6,1.2-3.6
		c0.8-0.9,1.9-1.4,3.1-1.4c1.1,0,2.2,0.5,2.9,1.3c0.8,1.1,1.2,2.5,1.1,3.8c0.1,1.3-0.3,2.6-1.2,3.7c-0.7,0.9-1.8,1.4-3,1.4
		C315.9,188.4,314.5,186.6,314.5,183.1z M316.4,183.2c0,0.9,0.2,1.9,0.6,2.7c0.3,0.6,0.9,1,1.5,1c1.6,0,2.4-1.2,2.4-3.6
		s-0.7-3.5-2.2-3.5c-0.7,0-1.4,0.4-1.7,0.9C316.5,181.4,316.3,182.3,316.4,183.2L316.4,183.2z"/>
	<path class="st2" d="M154,225.2c0-5.5,1.4-10.2,4.1-13.9c2.6-3.6,6.8-5.7,11.2-5.6c5.3,0,9.4,1.7,12.2,5.1
		c2.8,3.4,4.2,8.2,4.2,14.3c0,6.3-1.4,11.2-4.2,14.8c-2.8,3.6-6.9,5.3-12.2,5.3c-4.5,0.2-8.7-2-11.3-5.6
		C155.4,235.9,154,231.1,154,225.2z M159.5,225.2c-0.1,3.8,0.8,7.6,2.6,11c1.4,2.7,4.2,4.5,7.3,4.4c3.2,0.2,6.3-1.3,8.1-4
		c1.9-2.7,2.8-6.5,2.8-11.3c0-9.9-3.7-14.8-11-14.8c-3-0.1-5.8,1.4-7.4,4C160.3,217.1,159.5,220.6,159.5,225.2L159.5,225.2z"/>
	<path class="st2" d="M218.4,244.6l-10.2-16.4c-1.2,0-3-0.1-5.5-0.3v16.7h-5.2v-38.2l4.1-0.2c2.5-0.1,4.3-0.2,5.5-0.2
		c9.2,0,13.8,3.6,13.8,10.9c0,2.4-0.8,4.6-2.2,6.5c-1.3,1.8-3.1,3.1-5.3,3.6l11.1,17.6H218.4z M202.7,211.1v12.4
		c1.2,0.2,2.4,0.3,3.7,0.3c3.1,0,5.4-0.5,6.8-1.5c1.4-1,2.1-2.8,2.1-5.4c0.2-1.8-0.7-3.6-2.3-4.6c-1.5-0.9-4-1.4-7.3-1.4
		C205.2,210.8,204.2,210.9,202.7,211.1L202.7,211.1z"/>
	<path class="st2" d="M260.1,209.1l-2.2,4.3c-2.2-1.8-4.9-2.8-7.7-2.9c-3.6-0.2-7.2,1.4-9.5,4.2c-2.3,2.8-3.5,6.6-3.5,11.2
		c0,4.4,1.1,8,3.4,10.7c2.3,2.7,5.7,4.2,9.3,4c2.5,0.1,4.9-0.8,6.8-2.5v-8.9h-5.3v-4.4h10.5v16.6c-1.7,1.3-3.7,2.3-5.8,2.9
		c-2.4,0.7-4.8,1.1-7.3,1.1c-5.3,0-9.4-1.8-12.5-5.4s-4.6-8.3-4.6-14.3c0-5.9,1.7-10.7,5-14.4c3.3-3.7,7.9-5.5,13.6-5.5
		C253.9,205.6,257.4,206.8,260.1,209.1z"/>
	<path class="st2" d="M296.8,244.6l-2.6-8.1H280l-2.8,8.1h-5.8l15.5-38.8h1.4l14.4,38.8H296.8z M287.3,215.9l-5.9,16.8h11.4
		L287.3,215.9z"/>
	<path class="st2" d="M336.7,245.2l-19.8-27.9v27.4h-5v-38.2h2.1l19.2,26.4v-26.4h5v38.8H336.7z"/>
	<path class="st2" d="M352.3,244.6v-38.2h5.2v38.2H352.3z"/>
	<path class="st2" d="M396,207.8l-1.8,4.5c-1.7-1.2-4.3-1.8-7.9-1.8c-3.3-0.1-6.3,1.6-8.1,4.3c-2,2.9-3,6.6-3,11.2
		c0,4.4,1,7.9,3.1,10.6c3.5,4.6,10.1,5.4,14.6,1.9c0.6-0.5,1.2-1,1.7-1.6l2.9,4c-3.1,3.1-7.3,4.7-11.7,4.5c-4.6,0.2-9-1.8-11.8-5.4
		c-2.9-3.6-4.3-8.4-4.3-14.2c0-5.7,1.5-10.5,4.6-14.2c2.8-3.7,7.2-5.8,11.9-5.7C390.4,205.8,393.7,206.5,396,207.8z"/>
	<path class="st3" d="M167.2,192.8c-1.7-17.1-9-50.4,40.5-70.6C211.9,155.9,197.9,179.2,167.2,192.8"/>
	<path class="st3" d="M197.9,524c-7.9-15.2-26.9-43.6,11.7-80.6C226,473.2,221.5,500,197.9,524"/>
	<path class="st4" d="M147.1,435.6c4.1-16.7,8.3-50.6,61.7-53.2C201.5,415.7,180.6,433,147.1,435.6"/>
	<path class="st4" d="M233.3,531c4-16.7,8.3-50.6,61.7-53.2C287.8,511.1,266.9,528.4,233.3,531"/>
	<path class="st4" d="M415.4,216.9c-1.7-17.1-9-50.5,40.5-70.6C460.2,179.9,446.2,203.2,415.4,216.9"/>
	<path class="st3" d="M387.7,190.7c1.7-17.1,9-50.4-40.5-70.7C342.9,153.8,356.9,177,387.7,190.7"/>
	<path class="st4" d="M301.7,152.9c-6.4-15.9-22.8-45.9,19.1-79.1C334.3,104.9,327.4,131.1,301.7,152.9"/>
	<path class="st4" d="M261.6,152.2c-12.5-11.7-39.9-32.1-15.9-79.9C271.1,95,275.8,121.7,261.6,152.2"/>
	<path class="st3" d="M236.3,27.8c15.2-8,43.4-27.3,80.7,11C287.3,55.4,260.5,51.2,236.3,27.8"/>
	<path class="st4" d="M143.7,49.4c16.4-5.1,47.6-19,77.4,25.4C188.9,85.7,163.3,76.7,143.7,49.4"/>
	<path class="st4" d="M385.2,103.1c14.5-9.1,41.1-30.6,81.3,4.7C438.2,126.6,411.2,124.5,385.2,103.1"/>
	<path class="st4" d="M330.6,62.3c13.3-10.8,37.3-35.2,81.3-4.8C386,79.6,358.9,80.6,330.6,62.3"/>
	<path class="st4" d="M170.2,114.9c-15.6,7.2-44.8,24.9-80-15.3C120.7,84.5,147.2,90.2,170.2,114.9"/>
	<path class="st3" d="M504.6,221.9c-12.3-11.9-39.5-32.7-14.8-80.1C514.9,164.9,519.3,191.6,504.6,221.9"/>
	<path class="st4" d="M135.1,216.9c1.7-17.1,9-50.5-40.5-70.6C90.4,179.9,104.4,203.2,135.1,216.9"/>
	<path class="st4" d="M105.4,305.3c5.3-16.3,19.4-47.4-24.7-77.6C69.5,259.7,78.2,285.4,105.4,305.3"/>
	<path class="st4" d="M164.4,506.6c-1.1-17.1,0.7-51.2-51.4-63.2C114.3,477.4,131.8,498.1,164.4,506.6"/>
	<path class="st3" d="M134.6,394.7c-16.4-5.1-47.6-19-77.4,25.4C89.4,431.1,115,422.1,134.6,394.7"/>
	<path class="st4" d="M27.9,349.8c13.3,10.8,37.2,35.2,81.3,4.9C83.3,332.6,56.2,331.5,27.9,349.8"/>
	<path class="st4" d="M402.1,435.6c-4.1-16.7-8.3-50.6-61.7-53.2C347.6,415.7,368.5,433,402.1,435.6"/>
	<path class="st3" d="M378.9,506.6c1-17.1-0.7-51.2,51.4-63.2C429.1,477.4,411.5,498.1,378.9,506.6"/>
	<path class="st4" d="M413.1,390.4c16.4-5.1,47.6-19,77.4,25.4C458.3,426.7,432.7,417.7,413.1,390.4"/>
	<path class="st4" d="M321.1,533.2c-5.3-16.3-19.4-47.4,24.7-77.6C357.1,487.7,348.3,513.4,321.1,533.2"/>
	<path class="st3" d="M522.2,349.8c-14.4,9.3-40.9,31-81.3-3.9C468.9,326.7,496,328.6,522.2,349.8"/>
	<path class="st3" d="M312.9,461c-11.6-12.6-37.5-35-10-80.8C326.5,404.6,329.3,431.6,312.9,461"/>
	<path class="st3" d="M19.1,319.4c14.7-8.8,45.8-23,32.3-74.7C21.9,261.4,11.7,286.6,19.1,319.4"/>
	<path class="st4" d="M443.6,305.3c-5.3-16.3-19.4-47.4,24.7-77.6C479.5,259.7,470.8,285.4,443.6,305.3"/>
	<path class="st4" d="M529.9,319.4c-14.7-8.8-45.8-23-32.3-74.7C527.1,261.4,537.3,286.6,529.9,319.4"/>
	<path class="st3" d="M45.9,221.9c12.3-11.9,39.5-32.7,14.8-80.1C35.6,164.9,31.3,191.6,45.9,221.9"/>
	<path class="st4" d="M244.6,462.9c10.3-13.7,33.7-38.6,1.8-81.4C225.4,408.2,225.3,435.4,244.6,462.9"/>
	<line class="st5" x1="115.2" y1="61.3" x2="122.7" y2="72.4"/>
	<line class="st5" x1="400.9" y1="140.7" x2="408.4" y2="151.8"/>
	<line class="st5" x1="518.4" y1="227.7" x2="525.9" y2="238.8"/>
	<line class="st5" x1="202.2" y1="27.4" x2="215.3" y2="24.8"/>
	<line class="st5" x1="350.6" y1="99.4" x2="363.7" y2="96.8"/>
	<line class="st5" x1="196.4" y1="98.1" x2="209.2" y2="101.9"/>
	<line class="st5" x1="473.4" y1="309.9" x2="486.2" y2="313.7"/>
	<line class="st5" x1="287.5" y1="530.7" x2="298.2" y2="522.6"/>
	<line class="st5" x1="78.4" y1="204.7" x2="91.2" y2="208.6"/>
	<line class="st5" x1="448.7" y1="441.5" x2="461.5" y2="445.3"/>
	<line class="st5" x1="270.2" y1="453.8" x2="283.1" y2="457.6"/>
	<line class="st5" x1="365" y1="458.5" x2="366.1" y2="445.2"/>
	<line class="st5" x1="22.3" y1="236.2" x2="24.2" y2="223"/>
	<line class="st5" x1="71.5" y1="123.5" x2="84.8" y2="122.1"/>
	<line class="st5" x1="171.2" y1="450.3" x2="184.6" y2="448.8"/>
	<line class="st5" x1="112.3" y1="236.3" x2="125.6" y2="234.8"/>
	<line class="st5" x1="333.7" y1="28.1" x2="347" y2="26.6"/>
	<line class="st5" x1="419.2" y1="239.5" x2="432.5" y2="238"/>
	<line class="st5" x1="270" y1="384.9" x2="283.3" y2="383.5"/>
	<line class="st5" x1="62.6" y1="315.2" x2="76" y2="313.7"/>
	<line class="st5" x1="49.1" y1="397.4" x2="47.7" y2="384.1"/>
	<line class="st5" x1="141" y1="154.5" x2="146.4" y2="142.3"/>
	<line class="st5" x1="280.6" y1="81.2" x2="286" y2="69"/>
	<line class="st5" x1="470.7" y1="137.2" x2="476.1" y2="125"/>
	<line class="st5" x1="496.4" y1="391.1" x2="501.8" y2="378.8"/>
	<line class="st5" x1="87.5" y1="455.7" x2="92.9" y2="443.4"/>
</g>
</svg>
