<?xml version="1.0" encoding="utf-8"?>
<!-- Generator: Adobe Illustrator 24.3.0, SVG Export Plug-In . SVG Version: 6.00 Build 0)  -->
<svg version="1.1" id="Layer_1" xmlns="http://www.w3.org/2000/svg" xmlns:xlink="http://www.w3.org/1999/xlink" x="0px" y="0px"
	 viewBox="0 0 549 551" style="enable-background:new 0 0 549 551;" xml:space="preserve">
<style type="text/css">
	.st0{fill:#D9E800;stroke:#D9E800;stroke-width:1.9;stroke-miterlimit:10;}
	.st1{fill:#64B000;stroke:#64B000;stroke-width:1.18;stroke-miterlimit:10;}
	.st2{fill:#FFFFFF;}
	.st3{fill:#64B000;stroke:#64B000;stroke-width:0.48;stroke-miterlimit:10;}
	.st4{fill:#D9E800;stroke:#D9E800;stroke-width:0.48;stroke-miterlimit:10;}
	.st5{fill:#454545;stroke:#454545;stroke-width:0.39;stroke-miterlimit:10;}
	.st6{fill:none;stroke:#64B000;stroke-width:1.43;stroke-miterlimit:10;}
	.st7{fill:#FFFFFF;stroke:#454545;stroke-width:1.9;stroke-linecap:round;stroke-linejoin:round;}
	.st8{fill:#FFFFFF;stroke:#454545;stroke-width:2.28;stroke-linecap:round;stroke-linejoin:round;}
	.st9{fill:#D9D9D9;stroke:#454545;stroke-width:1.9;stroke-linecap:round;stroke-linejoin:round;}
	.st10{fill:none;stroke:#454545;stroke-width:1.9;stroke-linecap:round;stroke-linejoin:round;}
	.st11{fill:#C3E600;stroke:#C3E600;stroke-miterlimit:10;}
</style>
<g>
	<path class="st0" d="M103.4,255.7L98,266.1c-6.5-4.7-12.8-7-19-7c-9.9,0-17.6,3.4-23.3,10.1s-8.5,15.7-8.5,26.8
		c0,10.6,2.8,19.1,8.4,25.6c5.6,6.5,13.2,9.7,22.8,9.7c6.9,0,12.4-2,16.6-6v-21.4H82v-10.6h25.9V333c-3.4,2.8-8.2,5.1-14.3,6.8
		c-5.8,1.7-11.8,2.6-17.9,2.6c-13,0-23.2-4.3-30.7-12.8s-11.3-19.9-11.3-34.1c0-14.2,4.1-25.6,12.4-34.5
		c8.2-8.8,19.4-13.2,33.4-13.2C89.2,247.8,97.2,250.4,103.4,255.7z"/>
	<path class="st0" d="M133.7,340.9v-91.5h12.9v80.3h42.5v11.2H133.7z"/>
	<path class="st0" d="M206.9,249.4h12.9V312c-0.2,5.1,1.8,10.1,5.5,13.8c3.6,3.6,8.5,5.4,14.4,5.4c6.3,0,11.3-1.8,15-5.3
		c3.6-3.5,5.5-8.2,5.5-14.2v-62.4H273V313c0,9.2-3,16.5-8.9,21.6c-5.9,5.2-14,7.8-24.3,7.8c-10.5,0-18.7-2.5-24.4-7.6
		c-5.7-5.1-8.6-12.4-8.5-21.9V249.4z"/>
	<path class="st0" d="M333.2,260.6v80.3h-12.9v-80.3h-29.9v-11.3h74.1v11.3H333.2z"/>
	<path class="st0" d="M394.7,260.6V286h31.1v10.6h-31.1v33h42.7v11.2h-55.5v-91.5h56.2v11.3L394.7,260.6z"/>
	<path class="st0" d="M519.8,342.2l-48.6-66.9v65.7h-12.2v-91.5h5.1l47.4,63.3v-63.3h12.2v92.8H519.8z"/>
	<path class="st1" d="M214.3,369v12.2h15.8v5.1h-15.8v21.2h-6.1v-43.8h27.8v5.4L214.3,369z"/>
	<path class="st1" d="M270.6,407.4l-12-18.8c-1.4,0-3.5-0.1-6.5-0.3v19.1h-6.1v-43.7c0.2,0,1.8-0.1,4.8-0.2c3-0.2,5.1-0.2,6.5-0.2
		c10.8,0,16.2,4.2,16.2,12.5c0,2.7-0.9,5.3-2.6,7.4c-1.5,2-3.7,3.5-6.2,4.1l13.1,20.1L270.6,407.4z M252,369v14.2
		c1.4,0.2,2.9,0.3,4.3,0.3c3.7,0,6.4-0.6,8.1-1.7c1.7-1.1,2.5-3.2,2.5-6.2c0.2-2.1-0.9-4.1-2.7-5.3c-1.8-1.1-4.7-1.6-8.5-1.6
		C255,368.7,253.8,368.8,252,369z"/>
	<path class="st1" d="M292.8,369v12.2h14.9v5.1h-14.9V402h20.4v5.4h-26.6v-43.8h26.9v5.4L292.8,369z"/>
	<path class="st1" d="M330.9,369v12.2h14.9v5.1h-14.9V402h20.4v5.4h-26.6v-43.8h26.9v5.4L330.9,369z"/>
	<rect x="150.1" y="201.6" class="st2" width="240.2" height="25.4"/>
	<path class="st3" d="M184.6,214.2l-12-16.5v16.2h-3v-22.6h1.3l11.7,15.6v-15.6h3v22.9L184.6,214.2z"/>
	<path class="st3" d="M216.5,213.9l-1.6-4.7h-8.6l-1.7,4.7h-3.6l9.4-22.9h0.8l8.7,22.9H216.5z M210.7,196.9l-3.6,9.9h6.9
		L210.7,196.9z"/>
	<path class="st3" d="M240.7,194.1v19.8h-3.2v-19.8h-7.4v-2.8h18.3v2.8H240.7z"/>
	<path class="st3" d="M264.1,191.3h3.2v15.5c0,1.3,0.4,2.5,1.3,3.4c0.9,0.9,2.2,1.4,3.6,1.3c1.4,0.1,2.7-0.4,3.7-1.3
		c0.9-0.9,1.4-2.2,1.3-3.5v-15.4h3.2V207c0.1,2-0.7,4-2.2,5.3c-3.6,2.5-8.4,2.5-12,0c-1.5-1.4-2.2-3.4-2.1-5.4V191.3z"/>
	<path class="st3" d="M311,213.9l-6.2-9.7c-0.7,0-1.8,0-3.4-0.2v9.8h-3.2v-22.6l2.5-0.1c1.5-0.1,2.6-0.1,3.3-0.1
		c5.6,0,8.4,2.2,8.4,6.5c0,1.4-0.5,2.7-1.3,3.8c-0.8,1.1-1.9,1.8-3.2,2.1l6.8,10.4L311,213.9z M301.4,194.1v7.3
		c0.7,0.1,1.5,0.2,2.2,0.2c1.4,0.1,2.9-0.2,4.2-0.9c0.9-0.8,1.4-2,1.3-3.2c0.1-1.1-0.4-2.1-1.4-2.7c-1.4-0.7-2.9-0.9-4.4-0.8
		C303,193.9,302.4,194,301.4,194.1L301.4,194.1z"/>
	<path class="st3" d="M343.1,213.9l-1.6-4.7h-8.6l-1.7,4.7h-3.5l9.4-22.9h0.8l8.7,22.9H343.1z M337.3,196.9l-3.6,9.9h6.9
		L337.3,196.9z"/>
	<path class="st3" d="M362.1,213.9v-22.6h3.2V211h10.5v2.8L362.1,213.9z"/>
	<path class="st4" d="M228.8,172.7v-15.8l-4.3,2.6v-2.6c1.2-0.6,2.4-1.4,3.5-2.2c1.1-0.8,2-1.7,2.9-2.7h0.9v20.7H228.8z"/>
	<path class="st4" d="M249.9,161.8c-0.1-2.5,0.5-5.1,1.9-7.3c1.1-1.8,3.1-2.9,5.2-2.8c2-0.1,3.9,0.8,5,2.3c1.1,1.6,1.7,4.3,1.7,8.2
		c0,3.3-0.6,6-1.8,7.9c-1,1.8-3,2.9-5.1,2.9c-2,0.1-3.9-0.8-5.1-2.3C250.5,169.1,249.9,166.2,249.9,161.8z M252.9,162
		c0,5.7,1.3,8.6,3.8,8.6c1.4,0.1,2.6-0.7,3.2-1.9c0.7-1.3,1-3.5,1-6.7c0.1-1.6-0.1-3.2-0.4-4.8c-0.2-0.9-0.6-1.7-1.3-2.3
		c-0.6-0.5-1.4-0.8-2.2-0.8C254.2,154.1,252.9,156.7,252.9,162z"/>
	<path class="st4" d="M277.4,161.8c-0.1-2.5,0.5-5.1,1.8-7.3c1.1-1.8,3.1-2.9,5.2-2.8c2-0.1,3.9,0.8,5,2.3c1.1,1.6,1.7,4.3,1.7,8.2
		c0,3.3-0.6,6-1.8,7.9c-1,1.8-3,2.9-5.1,2.9c-2,0.1-3.9-0.8-5.1-2.3C278,169.1,277.4,166.2,277.4,161.8z M280.3,162
		c0,5.7,1.3,8.6,3.8,8.6c1.4,0.1,2.6-0.7,3.2-1.9c0.7-1.3,1-3.5,1-6.7c0.1-1.6-0.1-3.2-0.4-4.8c-0.2-0.9-0.6-1.7-1.3-2.3
		c-0.6-0.5-1.4-0.8-2.2-0.8C281.7,154.1,280.3,156.7,280.3,162z"/>
	<path class="st4" d="M304.8,156.4c-0.1-1.2,0.4-2.4,1.2-3.3c0.8-0.8,1.8-1.3,3-1.3c1.1,0,2.2,0.4,2.8,1.3c0.8,1.1,1.1,2.3,1.1,3.6
		c0.1,1.3-0.3,2.5-1.1,3.5c-0.7,0.8-1.8,1.3-2.9,1.3C306.1,161.4,304.8,159.7,304.8,156.4z M307,173h-1.8l12.8-21.3h1.8L307,173z
		 M306.6,156.5c0,0.9,0.1,1.8,0.6,2.6c0.3,0.6,0.9,0.9,1.5,0.9c1.6,0,2.3-1.1,2.3-3.4c0-2.3-0.7-3.4-2.1-3.4c-0.7,0-1.3,0.3-1.7,0.9
		C306.8,154.8,306.5,155.6,306.6,156.5z M312.6,168c-0.1-1.2,0.4-2.4,1.2-3.3c0.7-0.8,1.8-1.3,3-1.3c1.1,0,2.2,0.4,2.8,1.3
		c0.8,1.1,1.2,2.3,1.1,3.6c0.1,1.3-0.3,2.5-1.1,3.5c-0.7,0.8-1.8,1.3-2.9,1.3C313.9,173,312.6,171.3,312.6,168z M314.4,168.1
		c0,0.9,0.1,1.8,0.6,2.6c0.3,0.6,0.9,0.9,1.5,0.9c1.6,0,2.4-1.1,2.4-3.4c0-2.2-0.7-3.4-2.1-3.4c-0.7,0-1.3,0.4-1.7,0.9
		C314.6,166.5,314.4,167.3,314.4,168.1L314.4,168.1z"/>
	<path class="st5" d="M101.6,187.1c-3-1.4-5.2-4.1-5.9-7.3c-0.8-3.4-0.1-7.1,2.2-10.9c2.6-4.3,5.7-6.9,8.9-7.9
		c3.2-1,6.4-0.3,9.6,1.9c2.9,1.8,4.9,4.8,5.5,8.1c0.5,3.2-0.4,6.5-2.7,10.3c-2.1,3.4-4.6,5.6-7.8,6.7
		C108.1,188.9,104.6,188.6,101.6,187.1z M103.9,182.7c2.2,1.2,4.7,1.6,7.2,1.2c2.4-0.5,4.4-2,5.6-4.1c1.6-2.6,2.1-4.9,1.5-7.1
		c-0.7-2.4-2.3-4.5-4.6-5.8c-5.1-3.3-9.6-2.3-13.2,3.6c-1.6,2.6-2,5-1.3,7.2C99.9,179.8,101.7,181.6,103.9,182.7z"/>
	<path class="st5" d="M141.6,151.3c-4.4-0.3-8.8-0.5-13.3-0.5c-0.6,0.7-1.7,1.9-3.2,3.5l8.1,6.4c-0.9,1.1-1.8,2.2-2.6,3.3
		l-18.9-14.3c0.1-0.1,0.8-1.1,2.2-3c1.4-1.8,2.4-3.1,3.1-3.9c5.5-6.3,10.1-7.6,13.4-4.5c1.1,1.1,1.7,2.6,1.6,4.1
		c0,1.7-0.5,3.3-1.4,4.7c4.8,0.1,9.6,0.4,14.3,0.9C143.9,149,142.7,150.1,141.6,151.3z M117,147.7l6,4.8c0.8-0.8,1.5-1.5,2.1-2.3
		c1.4-1.4,2.5-3.1,3.2-5c0.4-1.3-0.1-2.7-1.3-3.6c-0.9-0.9-2.4-1.1-3.5-0.4c-1.9,1.1-3.6,2.6-4.9,4.3
		C118.3,145.8,117.8,146.6,117,147.7L117,147.7z"/>
	<path class="st5" d="M151.3,113.9c0,1.1,0.1,2.1,0.1,3.2c-2.3,0.3-4.6,1.2-6.4,2.6c-2.7,2.2-4.3,4.6-4.6,7.2
		c-0.3,2.6,0.6,5.2,2.5,7c1.6,1.9,4,3,6.6,3c2.7-0.1,5.3-1.1,7.3-2.8c1.5-1.1,2.7-2.7,3.2-4.4c-1.1-1.4-2.3-2.9-3.4-4.3
		c-1.2,0.9-2.3,1.7-3.4,2.6c-0.6-0.7-1.2-1.4-1.7-2.1c2.3-1.8,4.6-3.5,7-5.2l6.1,8.2c-0.6,1.5-1.5,2.9-2.6,4.1
		c-1.2,1.4-2.5,2.8-4,3.9c-3.2,2.5-6.3,3.9-9.7,3.9c-3.4,0-6.6-1.3-8.9-3.8c-2.5-2.4-3.7-5.9-3-9.3c0.6-3.6,2.9-7.1,6.8-10.2
		C145.4,115.5,148.3,114.2,151.3,113.9z"/>
	<path class="st5" d="M186.7,117.8c-1.4-1.1-2.8-2.3-4.2-3.4c-3.3,1.7-6.5,3.6-9.7,5.5c0.3,1.8,0.6,3.5,0.9,5.3
		c-1.3,0.8-2.5,1.6-3.8,2.4c-1.3-8.8-2-17.7-2.2-26.6c0.4-0.2,0.7-0.4,1.1-0.6c7.6,4.7,14.9,9.9,21.9,15.4
		C189.4,116.5,188.1,117.1,186.7,117.8z M171.2,106.1c0.3,3.8,0.8,7.5,1.3,11.2c2.6-1.6,5.2-3,7.9-4.5
		C177.4,110.6,174.3,108.3,171.2,106.1z"/>
	<path class="st5" d="M212.9,107.4c-6.7-3.9-13.8-7.4-21-10.5c2.3,5.1,4.6,10.2,6.9,15.3c-1.2,0.5-2.3,0.9-3.5,1.5l-10-21.2l1.6-0.7
		c7.2,2.6,14.2,5.7,21,9.3c-1.8-5.1-3.7-10.1-5.5-15.2c1.3-0.5,2.7-0.9,4-1.3c2.5,7.5,5.1,15,7.6,22.4L212.9,107.4z"/>
	<path class="st5" d="M222.2,104.3c-2.1-7.5-4.2-15-6.3-22.5c1.4-0.4,2.9-0.7,4.3-1.1c1.9,7.5,3.9,15.1,5.8,22.6
		C224.7,103.7,223.4,104,222.2,104.3z"/>
	<path class="st5" d="M250.5,76.8c-0.4,0.9-0.8,1.9-1.2,2.8c-1.5-0.6-3.7-0.8-6.8-0.4c-2.5,0.2-4.9,1.5-6.3,3.6
		c-1.4,2.1-1.8,4.7-1.2,7.1c0.4,2.4,1.6,4.5,3.6,5.9c1.9,1.4,4.2,1.9,6.5,1.6c2.4-0.2,4.5-1.2,6.1-3l2.4,2.3
		c-2.3,2.1-5.3,3.4-8.5,3.7c-6.6,1.3-13-2.8-14.3-9.2c0-0.2-0.1-0.4-0.1-0.5c-0.8-3.2-0.1-6.6,2-9.2c2.3-2.8,5.7-4.6,9.4-4.9
		C244.8,76,247.7,76.1,250.5,76.8z"/>
	<path class="st5" d="M278.8,89.7c-0.2,3-0.3,6-0.5,8.9c-1.3-0.1-2.6-0.1-3.9-0.2c0.3-7.8,0.6-15.5,0.8-23.3c3.4,0,5.4,0.1,6.1,0.1
		c9.5,0.6,13.9,3.7,13.2,8.1c-0.8,5.2-5,7.2-12.7,6.6C281.4,90.1,280.4,89.9,278.8,89.7z M279.5,78.3c-0.2,2.8-0.3,5.7-0.5,8.6
		l2.8,0.3c5.2,0.4,7.9-0.8,8.3-3.9c0.3-2.8-2.4-4.6-8.2-5C281.1,78.2,280.3,78.3,279.5,78.3z"/>
	<path class="st5" d="M314.3,104.3c-1.6-3.9-3.3-7.7-5.2-11.5c-0.9-0.2-2.3-0.5-4.3-1c-0.7,3.3-1.4,6.6-2.1,10
		c-1.3-0.2-2.6-0.5-3.9-0.7c1.4-7.6,2.8-15.3,4.2-22.9l3.4,0.5c2.1,0.3,3.7,0.6,4.7,0.8c7.7,1.7,10.9,4.9,9.6,9.2
		c-0.4,1.4-1.5,2.6-2.8,3.3c-1.4,0.8-3.1,1.2-4.7,1.1c2,4.2,3.8,8.3,5.4,12.5C317.2,105,315.7,104.6,314.3,104.3z M306.9,81.7
		l-1.5,7.4c1,0.3,1.9,0.5,2.9,0.7c1.8,0.5,3.8,0.6,5.6,0.3c1.3-0.4,2.3-1.5,2.5-2.8c0.4-1.2-0.1-2.5-1.2-3.2
		c-1.8-1.1-3.7-1.8-5.8-2.1C309,81.9,308.2,81.8,306.9,81.7L306.9,81.7z"/>
	<path class="st5" d="M325.8,95.2c0.9-3.1,3.1-5.6,6-7c3-1.4,6.5-1.4,10.3,0c4.3,1.6,7.1,4,8.4,6.9c1.3,2.9,1,6-0.6,9.4
		s-4.1,5.6-7,6.7c-2.9,1.1-6.2,0.9-9.9-0.6c-3.1-1-5.6-3.2-6.9-6.1C324.8,101.5,324.7,98.2,325.8,95.2z M330.1,96.6
		c-0.9,2.2-1,4.7-0.4,7c0.6,2.1,2.2,3.7,4.3,4.4c2.2,1,4.6,1,6.8,0.1c2.3-1.2,4-3.1,5-5.4c2.6-5.4,1.1-9.5-4.8-11.7
		c-2.2-1-4.7-1-6.8,0.1C332.2,92.3,330.7,94.3,330.1,96.6z"/>
	<path class="st5" d="M355.6,120.8c-1.7-0.9-3.4-1.9-5.2-2.8c3.8-6.9,7.5-13.7,11.3-20.6c3.9,1.9,6.2,3.2,7.3,3.8
		c4,2.3,6.6,5.1,7.7,8.2c1.1,2.9,0.6,6.2-1.3,8.7C370.4,125,364,125.5,355.6,120.8z M364.3,102.1c-2.9,5.1-5.9,10.1-8.8,15.2
		c0.7,0.5,1.7,1.1,2.8,1.8c2.1,1.3,4.7,1.8,7.1,1.3c2.5-0.7,4.7-2.3,6-4.5c3.2-4.6,1.8-8.8-4.2-12.3
		C366.9,103.4,365.9,102.9,364.3,102.1L364.3,102.1z"/>
	<path class="st5" d="M387.9,113.7c1.2,0.9,2.4,1.8,3.7,2.8L381.4,129c-0.9,1.1-1.2,2.5-0.9,3.8c0.4,1.6,1.4,3,2.7,4
		c1.3,1.2,2.9,1.9,4.6,2.1c1.5,0.1,2.9-0.4,3.9-1.5l11.1-11.7c1.2,1,2.3,2.1,3.4,3.2l-11.6,11.7c-1.5,1.6-3.8,2.4-6,2
		c-2.7-0.5-5.2-1.8-7.1-3.6c-2.5-2.1-4.1-4.2-4.7-6.3c-0.6-2.1-0.2-4.4,1.3-6.1L387.9,113.7z"/>
	<path class="st5" d="M426.4,153l-3.2,0.4c-0.3-1.6-1.5-3.8-3.5-6.2c-1.6-2.2-4.1-3.5-6.8-3.8c-2.6-0.1-5.1,0.8-7,2.6
		c-1.9,1.6-3.1,3.8-3.2,6.2c-0.1,2.4,0.7,4.8,2.4,6.6c1.9,2.2,3.9,3.5,6.1,3.9c-0.2,1.1-0.4,2.2-0.6,3.3c-3.2-1.1-6.1-3.1-8.1-5.8
		c-2.6-3.1-3.8-6.1-3.7-9.3c0.1-3.2,1.6-6.3,4.1-8.5c2.4-2.4,5.8-3.5,9.2-3c3.6,0.4,6.9,2.4,9.7,5.8
		C423.9,147.5,425.5,150.1,426.4,153z"/>
	<path class="st5" d="M437.2,172.7L419,182.9c-0.7-1.3-1.5-2.5-2.3-3.7l17.9-10.7c-2-3.2-4.1-6.3-6.2-9.3l2.4-1.6
		c5.5,7.8,10.4,16,14.7,24.5l-2.6,1.3C441.1,179.7,439.2,176.1,437.2,172.7z"/>
	<path class="st6" d="M128.9,194.9c55.9-111,218.7-111,274.6,0"/>
	<path class="st7" d="M268.4,64c0,0,43.2,1.1,40-47.2C308.4,16.7,264.5,21.6,268.4,64z"/>
	<path class="st8" d="M258.4,62.5c0,0,3.7-30.5-32.7-31.4C225.7,31,226.5,62.4,258.4,62.5z"/>
	<path class="st9" d="M75.4,228.3c0,0-14.9-33-52.3-12.9C23.1,215.3,43.1,246.7,75.4,228.3z"/>
	<path class="st10" d="M91.4,205.4c0,4.3-3.6,7.8-8,7.8s-8-3.5-8-7.8s3.6-7.8,8-7.8l0,0C87.8,197.7,91.4,201.2,91.4,205.4z"/>
	<path class="st9" d="M451.7,228.3c0,0,14.9-33,52.3-12.9C504,215.3,484.1,246.7,451.7,228.3z"/>
	<path class="st10" d="M435.7,205.4c0,4.3,3.6,7.8,8,7.8c4.4,0,8-3.5,8-7.8c0-4.3-3.6-7.8-8-7.8c0,0,0,0,0,0
		C439.3,197.7,435.7,201.2,435.7,205.4z"/>
	<path class="st10" d="M16.4,360.8c0,0,49.7-4.5,105.8,57c102.4,92.5,237.5,45.8,271.2,23.2c32.1-21.6,58.4-62.8,105.3-70.4"/>
	<path class="st7" d="M107.1,405.3c0,0-21.6,29.3,15.2,50.3C122.3,455.6,139.9,423,107.1,405.3z"/>
	<path class="st9" d="M176.6,454.7c0,0-24.4,58.4,47.1,79.5C223.7,534.2,239.8,471.7,176.6,454.7z"/>
	<path class="st7" d="M261.1,474c0,0,11,62.1,83.2,43.3C344.3,517.2,323.9,455.9,261.1,474z"/>
	<path class="st9" d="M145.1,396.5c0,0-26.6,25.1-53.5-7.3C91.6,389.2,122.3,367.6,145.1,396.5z"/>
	<path class="st9" d="M295.8,442.4c0,0-3.4,35.9-45.5,28.2C250.4,470.6,259.2,434.8,295.8,442.4z"/>
	<path class="st9" d="M426.7,360.2c0,0,29.1,33-12.9,62C413.8,422.3,389.2,384.7,426.7,360.2z"/>
	<path class="st7" d="M371,423c0,0,7.8,35.2-34.6,40.3C336.4,463.2,333.7,426.5,371,423z"/>
	<path class="st7" d="M480.3,411.9c0,0-21.3,29.5-53.9,2.6C426.4,414.5,452.3,387.6,480.3,411.9z"/>
	<path class="st9" d="M532.6,386.1c0,0-27.5,24.2-53.1-9.1C479.4,376.9,510.9,356.4,532.6,386.1z"/>
	<path class="st7" d="M228.7,433.9c0,0-25.2,41.4-71.5,8.9C157.2,442.7,188.9,404.4,228.7,433.9z"/>
	<path class="st9" d="M433.8,460.9c0,0-31.6,37.1-72-2.2C361.8,458.8,399.3,425.7,433.8,460.9z"/>
	<path class="st11" d="M190.3,385.8c0,4.8-4,8.6-8.9,8.6c-4.9,0-8.9-3.8-8.9-8.6c0-4.8,4-8.6,8.9-8.6c0,0,0,0,0,0
		C186.3,377.2,190.3,381,190.3,385.8z"/>
	<path class="st11" d="M386.2,385.8c0,4.8-4,8.6-8.9,8.6c-4.9,0-8.9-3.8-8.9-8.6c0-4.8,4-8.6,8.9-8.6c0,0,0,0,0,0
		C382.2,377.2,386.2,381,386.2,385.8z"/>
</g>
</svg>
